<?xml version="1.0" encoding="UTF-8"?>
<svg width="117px" height="37px" viewBox="0 0 117 37" version="1.1" xmlns="http://www.w3.org/2000/svg" xmlns:xlink="http://www.w3.org/1999/xlink">
    <!-- Generator: Sketch 46.2 (44496) - http://www.bohemiancoding.com/sketch -->
    <title>logo--blue</title>
    <desc>Created with Sketch.</desc>
    <defs></defs>
    <g id="Symbols" stroke="none" stroke-width="1" fill="none" fill-rule="evenodd">
        <g id="Nav" transform="translate(0.000000, -1.000000)" fill-rule="nonzero" fill="#131048">
            <g id="logo--blue">
                <g transform="translate(0.000000, 1.000000)">
                    <g id="Group" transform="translate(40.630225, 9.061224)">
                        <path d="M13.129582,9.1744898 C13.129582,8.26836735 12.9790997,7.70204082 12.6405145,7.28673469 C12.2643087,6.87142857 11.7,6.72040816 11.2109325,6.72040816 C10.1199357,6.72040816 8.99131833,7.4377551 8.31414791,8.19285714 C8.35176849,8.41938776 8.35176849,8.64591837 8.35176849,8.87244898 L8.35176849,14.8 L6.62122186,14.8 L6.62122186,9.1744898 C6.62122186,8.15510204 6.50836013,7.70204082 6.16977492,7.28673469 C5.79356913,6.83367347 5.26688103,6.68265306 4.74019293,6.68265306 C3.61157556,6.68265306 2.52057878,7.3622449 1.84340836,8.15510204 L1.84340836,14.7622449 L0.112861736,14.7622449 L0.112861736,5.28571429 L1.84340836,5.28571429 L1.84340836,6.45612245 L1.88102894,6.49387755 C2.67106109,5.70102041 3.79967846,5.09693878 5.07877814,5.09693878 C6.24501608,5.09693878 7.41125402,5.5877551 7.9755627,6.72040816 C9.10418006,5.6255102 10.270418,5.09693878 11.5871383,5.09693878 C12.6028939,5.09693878 13.5057878,5.43673469 14.0700965,6.11632653 C14.6344051,6.75816327 14.8601286,7.58877551 14.8601286,8.91020408 L14.8601286,14.8377551 L13.129582,14.8377551 L13.129582,9.1744898 L13.129582,9.1744898 Z" id="Shape"></path>
                        <path d="M17.6064309,19.0285714 L20.1646302,13.7428571 L16.2144695,5.28571429 L18.133119,5.28571429 L19.7884244,8.87244898 C20.2398714,9.85408163 20.6913183,10.8734694 21.0675241,11.7418367 L21.1051447,11.7418367 C21.5189711,10.7979592 21.9327974,9.85408163 22.3842444,8.87244898 L24.0771704,5.28571429 L25.9205788,5.28571429 L19.5250804,19.0285714 L17.6064309,19.0285714 Z" id="Shape"></path>
                        <path d="M27.4630225,10.8734694 C28.9302251,11.8928571 30.811254,12.3081633 31.9022508,12.3081633 C33.0308682,12.3081633 33.8585209,11.855102 33.8585209,10.8357143 C33.8585209,9.55204082 32.5418006,9.43877551 30.7736334,8.83469388 C28.8549839,8.19285714 27.1244373,7.24897959 27.1244373,4.83265306 C27.1244373,2.22755102 29.0807074,0.604081633 32.0151125,0.604081633 C33.3694534,0.604081633 35.0623794,0.943877551 36.2662379,1.62346939 L36.2662379,4.64387755 C34.7990354,3.7 33.0684887,3.28469388 32.0151125,3.28469388 C30.9617363,3.28469388 30.2093248,3.6622449 30.2093248,4.60612245 C30.2093248,5.85204082 31.4884244,5.92755102 33.1813505,6.49387755 C35.2881029,7.17346939 36.9810289,8.15510204 36.9810289,10.6469388 C36.9810289,13.3653061 34.9118971,15.0265306 31.9398714,15.0265306 C30.54791,15.0265306 28.8549839,14.6867347 27.5382637,14.0071429 L27.5382637,10.8734694 L27.4630225,10.8734694 Z" id="Shape"></path>
                        <path d="M44.8061093,14.4602041 C44.3546624,14.7622449 43.4893891,14.9887755 42.6617363,14.9887755 C41.6836013,14.9887755 40.7807074,14.6867347 40.2163987,14.044898 C39.7273312,13.5163265 39.388746,12.7234694 39.388746,11.2132653 L39.388746,7.70204082 L37.8463023,7.70204082 L37.8463023,5.28571429 L39.388746,5.28571429 L39.388746,2.83163265 L42.3231511,2.34081633 L42.3231511,5.28571429 L44.8061093,5.28571429 L44.8061093,7.70204082 L42.3231511,7.70204082 L42.3231511,10.8734694 C42.3231511,11.8173469 42.5488746,12.4969388 43.4141479,12.4969388 C43.9032154,12.4969388 44.4299035,12.3081633 44.8061093,12.1193878 L44.8061093,14.4602041 Z" id="Shape"></path>
                        <path d="M51.8787781,14.1959184 C51.2768489,14.6489796 50.3363344,14.9887755 49.2453376,14.9887755 C48.4553055,14.9887755 47.6652733,14.8 47.0633441,14.3846939 C46.3861736,13.8938776 45.9347267,13.1387755 45.9347267,12.1571429 C45.9347267,11.1 46.4237942,10.3071429 47.1009646,9.85408163 C47.8157556,9.36326531 48.7562701,9.1744898 49.7720257,9.1744898 C50.3363344,9.1744898 50.9006431,9.25 51.3897106,9.36326531 L51.3897106,8.98571429 C51.3897106,8.53265306 51.2392283,8.19285714 51.0135048,7.96632653 C50.7501608,7.70204082 50.2610932,7.55102041 49.5463023,7.55102041 C48.492926,7.55102041 47.514791,7.89081633 46.7623794,8.30612245 L46.7623794,5.77653061 C47.514791,5.39897959 48.6810289,5.05918367 50.0729904,5.05918367 C51.35209,5.05918367 52.4807074,5.36122449 53.233119,5.96530612 C53.94791,6.53163265 54.2864952,7.4 54.2864952,8.60816327 L54.2864952,11.8173469 C54.2864952,12.2704082 54.4745981,12.572449 54.8508039,12.572449 C55.0012862,12.572449 55.1893891,12.5346939 55.3398714,12.4591837 L55.3398714,14.6489796 C55.0012862,14.8377551 54.5122186,14.9510204 53.94791,14.9510204 C53.1954984,14.9510204 52.4430868,14.7244898 51.9163987,14.1959184 L51.8787781,14.1959184 Z M51.3897106,11.0622449 C51.088746,10.9489796 50.6749196,10.9112245 50.3363344,10.9112245 C49.5839228,10.9112245 48.8315113,11.1377551 48.8315113,11.8928571 C48.8315113,12.4969388 49.3581994,12.8367347 50.0353698,12.8367347 C50.5244373,12.8367347 51.0135048,12.6479592 51.35209,12.4591837 L51.35209,11.0622449 L51.3897106,11.0622449 Z" id="Shape"></path>
                        <path d="M69.6733119,10.7979592 C70.0118971,12.1193878 71.0652733,12.7234694 72.4196141,12.7234694 C73.4729904,12.7234694 74.6392283,12.3459184 75.6173633,11.6663265 L75.6173633,14.1204082 C74.6768489,14.6867347 73.2848875,14.9887755 72.0057878,14.9887755 C68.8832797,14.9887755 66.626045,13.0255102 66.626045,10.0806122 C66.626045,7.06020408 68.9585209,5.09693878 71.5919614,5.09693878 C73.9244373,5.09693878 76.1064309,6.64489796 76.1064309,9.81632653 C76.1064309,10.1561224 76.0688103,10.5714286 76.0311897,10.8357143 L69.6733119,10.8357143 L69.6733119,10.7979592 Z M73.4729904,8.94795918 C73.2848875,7.92857143 72.5324759,7.3244898 71.5919614,7.3244898 C70.6890675,7.3244898 69.8990354,7.89081633 69.6356913,8.94795918 L73.4729904,8.94795918 Z" id="Shape"></path>
                        <g transform="translate(56.807074, 0.000000)" id="Shape">
                            <polygon points="7.67459807 7.66428571 5.86881029 5.85204082 3.04726688 9.3255102 3.0096463 9.2877551 3.0096463 2.98265306 0.0752411576 0.037755102 0.0752411576 14.8 3.0096463 14.8 3.0096463 9.96734694 3.04726688 9.92959184 6.47073955 14.8 9.9318328 14.8 6.05691318 9.55204082"></polygon>
                            <polygon points="9.61800643 5.38571429 9.71800643 5.28571429 9.51800643 5.28571429"></polygon>
                        </g>
                    </g>
                    <g id="Group">
                        <path d="M17.1173633,2.45408163 C20.9546624,2.45408163 24.5286174,3.88877551 27.2749196,6.49387755 C30.1717042,9.2877551 31.7893891,13.0255102 31.8270096,17.027551 C31.8646302,20.2744898 30.8864952,23.3326531 29.0430868,25.9 L24.0771704,20.9163265 C24.7167203,19.7081633 25.0176849,18.3489796 24.9800643,16.9897959 C24.9048232,14.8 23.9643087,12.7612245 22.3090032,11.3265306 C20.8794212,10.0806122 19.0360129,9.36326531 17.1173633,9.36326531 C15.1987138,9.36326531 13.3553055,10.0428571 11.9257235,11.3265306 C10.270418,12.7989796 9.32990354,14.8 9.25466238,16.9897959 C9.2170418,18.3489796 9.51800643,19.7081633 10.1575563,20.9163265 L5.19163987,25.9 C3.34823151,23.3326531 2.33247588,20.2744898 2.40771704,17.027551 C2.44533762,13.0255102 4.06302251,9.2877551 6.95980707,6.49387755 C9.70610932,3.88877551 13.3176849,2.45408163 17.1173633,2.45408163 L17.1173633,2.45408163 Z M17.1173633,0.151020408 C12.8662379,0.151020408 8.61511254,1.69897959 5.34212219,4.83265306 C-1.2414791,11.1377551 -1.69292605,21.444898 4.10064309,28.2785714 C4.58971061,28.8826531 5.4926045,28.8826531 6.05691318,28.3540816 L12.3771704,22.0112245 C12.8286174,21.5581633 12.9038585,20.8408163 12.5276527,20.3122449 C11.0228296,18.0469388 11.3237942,14.9510204 13.4681672,13.0632653 C14.5215434,12.1571429 15.8006431,11.7040816 17.1173633,11.7040816 C18.4340836,11.7040816 19.7508039,12.1571429 20.7665595,13.0632653 C22.9109325,14.9510204 23.2118971,18.0846939 21.707074,20.3122449 C21.3684887,20.8408163 21.4061093,21.5581633 21.8575563,22.0112245 L28.1778135,28.3540816 C28.7045016,28.8826531 29.6073955,28.8826531 30.1340836,28.2785714 C35.8900322,21.444898 35.4762058,11.1755102 28.8926045,4.83265306 C25.6196141,1.69897959 21.3684887,0.151020408 17.1173633,0.151020408 L17.1173633,0.151020408 Z" id="Shape"></path>
                        <path d="M28.2154341,30.8081633 L21.8951768,24.4653061 C21.4437299,24.0122449 20.7289389,23.9744898 20.2022508,24.3142857 C19.2617363,24.9183673 18.2083601,25.2581633 17.1173633,25.2581633 L17.1173633,25.2581633 L17.1173633,25.2581633 L17.1173633,25.2581633 C16.0639871,25.2581633 14.9729904,24.9561224 14.0324759,24.3142857 C13.5057878,23.9744898 12.7909968,24.0122449 12.3395498,24.4653061 L6.0192926,30.8081633 C5.4926045,31.3367347 5.4926045,32.2428571 6.09453376,32.7336735 C9.25466238,35.4142857 13.1672026,36.7734694 17.1173633,36.7734694 L17.1173633,36.7734694 L17.1173633,36.7734694 L17.1173633,36.7734694 C21.0299035,36.7734694 24.9424437,35.4142857 28.1401929,32.7336735 C28.7045016,32.2428571 28.7421222,31.3744898 28.2154341,30.8081633 Z" id="Shape"></path>
                    </g>
                </g>
            </g>
        </g>
    </g>
</svg>